<svg xmlns="http://www.w3.org/2000/svg" width="830" height="280" viewBox="0 0 830 280" role="img" aria-labelledby="title desc">
  <title id="title">ne0ck terminal profile header</title>
  <desc id="desc">Pixel ne0ck wordmark with a terminal status: Full-stack Helldiver deployed on the bug frontline.</desc>
  <style>
    :root {
      --bg: #f6f8fa;
      --bar: #ffffff;
      --border: #d0d7de;
      --text: #24292f;
      --muted: #57606a;
      --blue: #0969da;
      --green: #1a7f37;
      --yellow: #9a6700;
      --red: #cf222e;
      --line: #d8dee4;
    }
    @media (prefers-color-scheme: dark) {
      :root {
        --bg: #161b22;
        --bar: #0d1117;
        --border: #30363d;
        --text: #c9d1d9;
        --muted: #8b949e;
        --blue: #58a6ff;
        --green: #3fb950;
        --yellow: #d29922;
        --red: #f85149;
        --line: #30363d;
      }
    }
    text {
      font-family: ui-monospace, "SFMono-Regular", Menlo, Consolas, "Liberation Mono", monospace;
      font-weight: 400;
      fill: var(--text);
    }
    .tiny { font-size: 11px; }
    .small { font-size: 12px; }
    .body { font-size: 13px; }
    .heading { font-size: 15px; font-weight: 500; }
    .muted { fill: var(--muted); }
    .blue { fill: var(--blue); }
    .green { fill: var(--green); }
    .yellow { fill: var(--yellow); }
  </style>

  <rect x="1" y="1" width="828" height="278" rx="9" fill="var(--bg)" stroke="var(--border)"/>
  <path d="M10 1h810a9 9 0 0 1 9 9v27H1V10a9 9 0 0 1 9-9Z" fill="var(--bar)"/>
  <line x1="1" y1="37.5" x2="829" y2="37.5" stroke="var(--border)"/>

  <circle cx="18" cy="19" r="4" fill="var(--red)" opacity=".85"/>
  <circle cx="32" cy="19" r="4" fill="var(--yellow)" opacity=".85"/>
  <circle cx="46" cy="19" r="4" fill="var(--green)" opacity=".85"/>
  <text x="64" y="23" class="tiny muted">ne0ck: ~</text>
  <text x="804" y="23" class="tiny green" text-anchor="end">● ready</text>

  <text x="40" y="68" class="small green">$ cat banner.txt</text>
  <g fill="var(--blue)">
    <rect x="40" y="106" width="36" height="9" rx="1"/>
    <rect x="40" y="115" width="9" height="9" rx="1"/>
    <rect x="76" y="115" width="9" height="9" rx="1"/>
    <rect x="40" y="124" width="9" height="9" rx="1"/>
    <rect x="76" y="124" width="9" height="9" rx="1"/>
    <rect x="40" y="133" width="9" height="9" rx="1"/>
    <rect x="76" y="133" width="9" height="9" rx="1"/>
    <rect x="40" y="142" width="9" height="9" rx="1"/>
    <rect x="76" y="142" width="9" height="9" rx="1"/>
    <rect x="105" y="106" width="27" height="9" rx="1"/>
    <rect x="96" y="115" width="9" height="9" rx="1"/>
    <rect x="132" y="115" width="9" height="9" rx="1"/>
    <rect x="96" y="124" width="45" height="9" rx="1"/>
    <rect x="96" y="133" width="9" height="9" rx="1"/>
    <rect x="105" y="142" width="27" height="9" rx="1"/>
    <rect x="161" y="88" width="27" height="9" rx="1"/>
    <rect x="152" y="97" width="9" height="9" rx="1"/>
    <rect x="188" y="97" width="9" height="9" rx="1"/>
    <rect x="152" y="106" width="9" height="9" rx="1"/>
    <rect x="179" y="106" width="18" height="9" rx="1"/>
    <rect x="152" y="115" width="9" height="9" rx="1"/>
    <rect x="170" y="115" width="9" height="9" rx="1"/>
    <rect x="188" y="115" width="9" height="9" rx="1"/>
    <rect x="152" y="124" width="18" height="9" rx="1"/>
    <rect x="188" y="124" width="9" height="9" rx="1"/>
    <rect x="152" y="133" width="9" height="9" rx="1"/>
    <rect x="188" y="133" width="9" height="9" rx="1"/>
    <rect x="161" y="142" width="27" height="9" rx="1"/>
    <rect x="217" y="106" width="27" height="9" rx="1"/>
    <rect x="208" y="115" width="9" height="9" rx="1"/>
    <rect x="244" y="115" width="9" height="9" rx="1"/>
    <rect x="208" y="124" width="9" height="9" rx="1"/>
    <rect x="208" y="133" width="9" height="9" rx="1"/>
    <rect x="244" y="133" width="9" height="9" rx="1"/>
    <rect x="217" y="142" width="27" height="9" rx="1"/>
    <rect x="264" y="88" width="9" height="9" rx="1"/>
    <rect x="264" y="97" width="9" height="9" rx="1"/>
    <rect x="264" y="106" width="9" height="9" rx="1"/>
    <rect x="291" y="106" width="9" height="9" rx="1"/>
    <rect x="264" y="115" width="9" height="9" rx="1"/>
    <rect x="282" y="115" width="9" height="9" rx="1"/>
    <rect x="264" y="124" width="18" height="9" rx="1"/>
    <rect x="264" y="133" width="9" height="9" rx="1"/>
    <rect x="282" y="133" width="9" height="9" rx="1"/>
    <rect x="264" y="142" width="9" height="9" rx="1"/>
    <rect x="291" y="142" width="9" height="9" rx="1"/>
  </g>
  <line x1="367.5" y1="58" x2="367.5" y2="180" stroke="var(--line)"/>

  <text x="400" y="68" class="small green">$ ./status</text>
  <text x="400" y="94" class="heading">Full-stack Helldiver</text>
  <text x="400" y="116" class="body muted">deployed on the bug frontline</text>

  <text x="400" y="141" class="small muted">mission</text>
  <text x="498" y="141" class="small">squash bugs</text>
  <text x="400" y="162" class="small muted">uptime</text>
  <text x="498" y="162" class="small green">24/7</text>
  <text x="400" y="183" class="small muted">timezone</text>
  <text x="498" y="183" class="small yellow">UTC+7</text>

  <line x1="20" y1="207.5" x2="810" y2="207.5" stroke="var(--line)"/>
  <text x="40" y="234" class="small green">$ cat /etc/motd</text>
  <text x="40" y="260" class="body">managed performance, unmanaged agents</text>
  <rect x="314" y="249" width="8" height="14" rx="1" fill="var(--text)" opacity=".82"/>
</svg>